<?xml version="1.0" encoding="utf-8"?>
<!-- Generator: Adobe Illustrator 24.1.2, SVG Export Plug-In . SVG Version: 6.00 Build 0)  -->
<svg version="1.1" id="Слой_1" xmlns="http://www.w3.org/2000/svg" xmlns:xlink="http://www.w3.org/1999/xlink" x="0px" y="0px"
	 viewBox="0 0 828 828" style="enable-background:new 0 0 828 828;" xml:space="preserve">
<style type="text/css">
	.st0{display:none;}
	.st1{display:inline;}
	.st2{display:inline;fill:#FFFFFF;}
	.st3{fill:#222831;}
	.st4{fill:#3C9A9F;}
	.st5{fill:#EEEEEE;}
	.st6{display:inline;fill:#8C6239;}
</style>
<g id="monochrome" class="st0">
	<g id="background_1_" class="st1">
		<circle cx="414" cy="414" r="414"/>
	</g>
	<path id="circle_x5F_stroke_x5F_big_1_" class="st2" d="M413.97,8.93C190.28,8.93,8.94,190.27,8.94,413.96S190.27,819,413.97,819
		S819,637.66,819,413.97S637.66,8.93,413.97,8.93z M694,694c-36.37,36.37-78.73,64.93-125.89,84.88
		C519.3,799.53,467.43,810,413.97,810s-105.33-10.47-154.15-31.12c-47.16-19.95-89.51-48.5-125.89-84.88
		C97.56,657.63,69,615.27,49.05,568.11C28.4,519.29,17.93,467.43,17.93,413.96S28.4,308.63,49.05,259.81
		c19.95-47.16,48.5-89.51,84.88-125.89c36.37-36.37,78.73-64.93,125.89-84.88c48.82-20.65,100.68-31.12,154.15-31.12
		S519.3,28.39,568.12,49.04c47.16,19.95,89.51,48.5,125.89,84.88c36.37,36.37,64.93,78.73,84.88,125.89
		C799.53,308.63,810,360.5,810,413.97s-10.47,105.33-31.12,154.15C758.94,615.28,730.38,657.63,694,694z"/>
	<path id="circle_x5F_stroke_x5F_little_2_" class="st2" d="M414,153c-144.15,0-261,116.85-261,261s116.85,261,261,261
		s261-116.85,261-261S558.15,153,414,153z M592.19,592.19c-23.15,23.15-50.1,41.32-80.1,54.01C481.03,659.34,448.02,666,414,666
		s-67.02-6.66-98.09-19.8c-30.01-12.69-56.96-30.86-80.1-54.01c-23.15-23.15-41.32-50.1-54.01-80.1
		C168.66,481.03,162,448.02,162,414s6.66-67.03,19.8-98.09c12.69-30.01,30.86-56.96,54.01-80.1c23.15-23.15,50.1-41.32,80.1-54.01
		C346.98,168.66,379.98,162,414,162s67.03,6.66,98.09,19.8c30.01,12.69,56.96,30.86,80.1,54.01c23.15,23.15,41.32,50.1,54.01,80.1
		C659.34,346.97,666,379.98,666,414s-6.66,67.03-19.8,98.09C633.51,542.09,615.34,569.04,592.19,592.19z"/>
	<path id="Football_center_1_" class="st2" d="M171.09,198.76l19.78,17.7l-6.95,7.76l-44.82-40.11l17.98-20.09l6.7,5.99
		l-11.04,12.33l11.64,10.42l9.08-10.14l6.7,5.99L171.09,198.76z M222.19,170.6c2.76,3.17,3.66,6.52,2.7,10.07s-2.98,6.66-6.06,9.35
		c-3.12,2.72-6.51,4.32-10.15,4.78c-3.64,0.47-6.85-0.89-9.61-4.05l-24.4-27.99c-2.8-3.21-3.72-6.58-2.76-10.13s3-6.68,6.12-9.4
		c3.08-2.69,6.44-4.26,10.09-4.73c3.64-0.46,6.86,0.91,9.66,4.11L222.19,170.6z M214.23,177.32l-24.12-27.67
		c-0.88-1.01-1.91-1.44-3.07-1.28s-2.23,0.66-3.2,1.51c-1.01,0.88-1.69,1.9-2.02,3.05c-0.34,1.15-0.06,2.23,0.82,3.24l24.12,27.67
		c0.88,1.01,1.92,1.43,3.1,1.25s2.28-0.71,3.29-1.59c0.97-0.85,1.61-1.83,1.93-2.96C215.4,179.4,215.11,178.33,214.23,177.32z
		 M255.72,147.53c2.32,3.5,2.78,6.94,1.37,10.33s-3.82,6.22-7.23,8.48c-3.45,2.29-7.02,3.43-10.69,3.42s-6.67-1.77-8.99-5.27
		l-20.54-30.93c-2.35-3.54-2.83-7.01-1.41-10.4c1.41-3.39,3.84-6.23,7.3-8.52c3.41-2.26,6.94-3.38,10.62-3.37
		c3.67,0.02,6.69,1.8,9.04,5.34L255.72,147.53z M246.95,153.15l-20.3-30.58c-0.74-1.12-1.7-1.68-2.87-1.67s-2.3,0.36-3.37,1.08
		c-1.12,0.74-1.92,1.66-2.4,2.76c-0.48,1.09-0.35,2.2,0.39,3.32l20.3,30.58c0.74,1.12,1.71,1.67,2.91,1.65s2.35-0.4,3.47-1.15
		c1.07-0.71,1.84-1.61,2.3-2.69C247.84,155.37,247.7,154.27,246.95,153.15z M270.45,95.29l-4.04-8.03l-26.71,13.45l4.04,8.03
		l8.78-4.42l23,45.69l9.23-4.65l-23-45.69L270.45,95.29z M325.12,114.75c1.3,3.64,1.24,7.1-0.2,10.38
		c-1.44,3.28-4.22,5.66-8.33,7.14l-17.08,6.13l-20.3-56.61l15.89-5.7c3.69-1.32,7.09-1.38,10.2-0.18s5.26,3.47,6.45,6.79l2.5,6.96
		c1.19,3.32,0.6,6.9-1.78,10.72c5.2,0.57,8.59,3.05,10.16,7.42L325.12,114.75z M302.78,99.74c1.27-0.45,2.07-1.2,2.41-2.25
		c0.34-1.04,0.3-2.15-0.11-3.31l-2.27-6.33c-1.08-3-2.88-4.05-5.41-3.15l-5.38,1.93l5.39,15.02L302.78,99.74z M315.2,117.95
		l-2.5-6.96c-0.53-1.48-1.39-2.54-2.57-3.18c-1.18-0.65-2.59-0.68-4.23-0.09l-5.61,2.01l6.07,16.92l5.61-2.01
		c1.63-0.59,2.71-1.49,3.22-2.72C315.71,120.7,315.71,119.37,315.2,117.95z M369.62,117.16l0.31,1.48l-9.78,2.08
		c-2.43-5.49-4.06-9.24-4.88-11.24l-12.49,2.66l0.2,12.24l-9.78,2.08l-0.32-1.48l1.26-60.22l9.78-2.08L369.62,117.16z M351.7,101.14
		l-9.33-21.63c0.02,6.29,0.12,14.15,0.29,23.56L351.7,101.14z M386.01,108.27l-4.48-50.96l-10.38,0.91l5.26,59.91l26.86-2.36
		l-0.79-8.95L386.01,108.27z M421.73,55.94l-10.41-0.24l-1.41,60.13l26.96,0.63l0.21-8.99l-16.54-0.39L421.73,55.94z M486.97,85.09
		l10.2,2.09l1.97-9.63c0.85-4.17-0.01-7.56-2.59-10.18c-2.58-2.61-5.87-4.33-9.88-5.15c-4.06-0.83-7.79-0.55-11.19,0.84
		s-5.53,4.17-6.38,8.34l-7.45,36.37c-0.84,4.11,0.03,7.48,2.61,10.09c2.58,2.62,5.9,4.34,9.96,5.17c4,0.82,7.71,0.54,11.11-0.86
		c3.4-1.39,5.52-4.14,6.36-8.26l1.95-9.55l-10.2-2.09l-1.9,9.3c-0.26,1.26-0.93,2.11-2.02,2.54c-1.09,0.44-2.26,0.52-3.53,0.26
		c-1.32-0.27-2.4-0.82-3.26-1.65c-0.86-0.83-1.16-1.88-0.9-3.14l7.33-35.8c0.27-1.32,0.95-2.18,2.03-2.59s2.31-0.47,3.68-0.19
		c1.26,0.26,2.31,0.8,3.14,1.63s1.12,1.87,0.86,3.13L486.97,85.09z M529.45,110.37l2.89-8.51l-12.89-4.37l5.02-14.79l15.67,5.32
		l2.89-8.51l-25.53-8.67l-19.33,56.95l25.53,8.67l2.89-8.51l-15.67-5.32l5.64-16.63L529.45,110.37z M578.77,95.88l-4.34,8.73
		c-1.45,2.91-3.45,7.07-6.02,12.49c-2.57,5.42-4.26,8.95-5.08,10.61l3.1-37.95l-8.12-4.04l-26.77,53.86l9.25,4.6l4.3-8.65
		c1.45-2.91,3.45-7.06,6-12.45s4.25-8.94,5.1-10.64l-3.06,37.87l8.05,4l26.77-53.86L578.77,95.88z M619.98,131.66l4.99-7.48
		l-24.87-16.6l-4.99,7.48l8.17,5.46l-28.4,42.55l8.59,5.74l28.4-42.55L619.98,131.66z M621.95,164.81l10.39,8.78l5.8-6.86
		l-10.39-8.78l10.09-11.93l12.64,10.68l5.8-6.86l-20.59-17.41l-38.83,45.93l20.59,17.41l5.8-6.86l-12.64-10.68L621.95,164.81z
		 M683.71,183.57c-0.02,3.55-1.72,6.87-5.11,9.97l-5.45,4.99c-4.25,3.9-8.94,5.04-14.06,3.42c-1.42,2.51-3.52,6.28-6.29,11.29
		c-2.78,5.01-4.86,8.75-6.23,11.23l-1.11,1.02l-7.2-7.87l13.06-21.18l-3.06-3.35l-17.66,16.17l-6.92-7.56l44.36-40.61l11.12,12.14
		C682.21,176.58,683.73,180.03,683.71,183.57z M672.4,179.18l-4.08-4.46l-13.44,12.31l4.08,4.46c0.94,1.03,2.11,1.45,3.48,1.25
		c1.38-0.2,2.58-0.77,3.61-1.71l5.64-5.16c0.95-0.87,1.54-1.94,1.78-3.22C673.7,181.37,673.35,180.21,672.4,179.18z"/>
	<path id="_x32_022_1_" class="st2" d="M365.76,711.2c2.41,2.55,3.21,5.92,2.39,10.1l-1,5.11c-0.46,2.36-1.07,4.44-1.82,6.24
		c-0.75,1.79-1.48,3.19-2.19,4.19s-1.72,1.95-3.03,2.83c-1.31,0.89-2.38,1.52-3.2,1.9s-2.12,0.91-3.91,1.59
		c-4.09,1.37-6.64,2.54-7.66,3.51c-1.02,0.97-1.88,3.27-2.59,6.9l-0.63,3.21l18.71,3.65l-1.69,8.66l-28.85-5.63l2.32-11.87
		c0.42-2.14,0.9-4,1.43-5.58c0.54-1.58,1.25-2.97,2.14-4.16c0.89-1.2,1.71-2.16,2.45-2.9c0.74-0.74,1.83-1.47,3.25-2.19
		c1.42-0.72,2.63-1.25,3.61-1.61c0.98-0.35,2.48-0.87,4.5-1.56c2.3-0.69,3.9-1.62,4.78-2.79s1.63-3.29,2.23-6.37l0.95-4.86
		c0.25-1.26,0.03-2.28-0.65-3.04c-0.68-0.76-1.51-1.24-2.5-1.43c-1.1-0.21-2.11-0.1-3.02,0.35c-0.92,0.45-1.5,1.31-1.74,2.57
		l-1.24,6.35l-10.14-1.98l1.29-6.6c0.82-4.18,2.83-6.99,6.06-8.45c3.22-1.45,6.73-1.81,10.52-1.07
		C360.28,707.01,363.35,708.65,365.76,711.2z M407.78,723.9l-2.5,38.39c-0.26,4.02-1.88,6.89-4.85,8.61
		c-2.97,1.71-6.36,2.45-10.16,2.2c-3.86-0.25-7.16-1.42-9.92-3.51c-2.75-2.09-4-5.14-3.74-9.17l2.5-38.39
		c0.26-4.02,1.89-6.91,4.9-8.65c3-1.74,6.43-2.49,10.29-2.23c3.8,0.25,7.06,1.41,9.79,3.5C406.81,716.74,408.04,719.82,407.78,723.9
		z M397.45,723.57c0.07-1.12-0.27-1.95-1.02-2.51c-0.75-0.55-1.66-0.87-2.72-0.93c-2.74-0.18-4.18,0.79-4.31,2.92l-2.46,37.8
		c-0.07,1.06,0.28,1.88,1.06,2.47c0.77,0.58,1.72,0.91,2.84,0.98c1.01,0.07,1.93-0.14,2.78-0.62c0.84-0.48,1.3-1.25,1.37-2.31
		L397.45,723.57z M431.17,763.73l-0.2-3.27c-0.22-3.69,0.03-6.13,0.77-7.33c0.74-1.19,2.92-2.97,6.54-5.32
		c1.56-1.1,2.69-1.94,3.38-2.52c0.69-0.57,1.57-1.45,2.62-2.64s1.79-2.35,2.23-3.5c0.43-1.15,0.79-2.68,1.07-4.61
		c0.27-1.92,0.34-4.09,0.19-6.49l-0.32-5.2c-0.26-4.25-1.88-7.3-4.85-9.17s-6.36-2.68-10.16-2.45c-3.86,0.23-7.16,1.46-9.92,3.68
		s-4,5.45-3.74,9.7l0.41,6.71l10.31-0.63l-0.39-6.46c-0.08-1.29,0.27-2.26,1.04-2.92c0.77-0.66,1.72-1.03,2.84-1.1
		c1.01-0.06,1.93,0.19,2.78,0.76s1.31,1.49,1.39,2.78l0.3,4.95c0.19,3.13,0,5.37-0.56,6.72s-1.87,2.65-3.93,3.9
		c-1.78,1.17-3.1,2.05-3.96,2.64s-1.89,1.41-3.09,2.46c-1.2,1.05-2.06,2.03-2.6,2.94s-1.08,2.04-1.64,3.42s-0.9,2.9-1.03,4.56
		c-0.12,1.66-0.12,3.58,0.01,5.76l0.74,12.07l29.35-1.79l-0.54-8.8L431.17,763.73z M494.41,755.15l-18.73,3.58l-0.61-3.22
		c-0.69-3.63-0.75-6.08-0.17-7.37c0.58-1.28,2.52-3.32,5.8-6.11c1.41-1.29,2.42-2.27,3.03-2.93s1.37-1.64,2.26-2.95
		s1.48-2.56,1.76-3.76c0.29-1.19,0.44-2.76,0.47-4.71c0.03-1.94-0.18-4.1-0.63-6.46l-0.98-5.12c-0.8-4.18-2.79-7.01-5.98-8.48
		s-6.65-1.85-10.39-1.14c-3.79,0.72-6.92,2.36-9.37,4.91s-3.28,5.91-2.48,10.09l1.26,6.6l10.15-1.94l-1.21-6.35
		c-0.24-1.26-0.02-2.28,0.66-3.03c0.68-0.76,1.57-1.24,2.67-1.45c0.99-0.19,1.94-0.06,2.86,0.4c0.91,0.45,1.49,1.31,1.73,2.58
		l0.93,4.87c0.59,3.08,0.69,5.33,0.3,6.74s-1.52,2.87-3.4,4.37c-1.62,1.39-2.81,2.43-3.59,3.12s-1.7,1.64-2.75,2.83
		c-1.05,1.2-1.79,2.28-2.2,3.24c-0.42,0.96-0.81,2.17-1.19,3.61s-0.53,3-0.44,4.66c0.09,1.67,0.34,3.57,0.75,5.71l2.27,11.88
		l28.88-5.51L494.41,755.15z"/>
	<path id="field_x27_s_centre_1_" class="st2" d="M648,414c0,123.18-95.18,224.13-216,233.32v50.18l-36-18v-32.18v-36.14V464.92
		c5.63,1.99,11.69,3.08,18,3.08s12.37-1.09,18-3.08v146.26c100.91-9.1,180-93.89,180-197.18c0-97.06-69.84-177.79-162-194.73v-36.52
		C562.14,200.07,648,297.01,648,414z M216,414c0-103.28,79.09-188.08,180-197.18v146.26c5.63-1.99,11.69-3.08,18-3.08
		s12.37,1.09,18,3.08V216.82v-36.14V148.5l-36-18v50.18C275.18,189.87,180,290.82,180,414c0,116.99,85.86,213.93,198,231.24v-36.52
		C285.84,591.79,216,511.06,216,414z M450,414c0-19.88-16.12-36-36-36s-36,16.12-36,36s16.12,36,36,36S450,433.88,450,414z"/>
	<path id="FC_1_" class="st2" d="M547.51,468h38.24C566.32,529.85,514.41,577.32,450,590.4V564v-10.54v-99.22
		c11.04-9.89,18-24.25,18-40.24s-6.96-30.35-18-40.24v-99.22V264v-26.4c64.41,13.07,116.32,60.54,135.75,122.4h-38.24
		c-12.09-29.86-33.89-54.75-61.51-70.73v249.46C513.62,522.75,535.42,497.86,547.51,468z M234,414c0,87.08,61.84,159.72,144,176.4
		v-36.93c-56.47-14.53-99.52-62.45-106.88-121.46H342v-36h-70.88c5.69-45.66,32.76-84.68,70.88-106.73V342l36,18v-85.46V252v-14.4
		C295.84,254.28,234,326.92,234,414z"/>
</g>
<g id="RGB">
	<g id="background">
		<circle class="st3" cx="414" cy="414" r="414"/>
	</g>
	<path id="circle_x5F_stroke_x5F_big" class="st4" d="M413.97,8.93C190.28,8.93,8.94,190.27,8.94,413.96S190.27,819,413.97,819
		S819,637.66,819,413.97S637.66,8.93,413.97,8.93z M694,694c-36.37,36.37-78.73,64.93-125.89,84.88
		C519.3,799.53,467.43,810,413.97,810s-105.33-10.47-154.15-31.12c-47.16-19.95-89.51-48.5-125.89-84.88
		C97.56,657.63,69,615.27,49.05,568.11C28.4,519.29,17.93,467.43,17.93,413.96S28.4,308.63,49.05,259.81
		c19.95-47.16,48.5-89.51,84.88-125.89c36.37-36.37,78.73-64.93,125.89-84.88c48.82-20.65,100.68-31.12,154.15-31.12
		S519.3,28.39,568.12,49.04c47.16,19.95,89.51,48.5,125.89,84.88c36.37,36.37,64.93,78.73,84.88,125.89
		C799.53,308.63,810,360.5,810,413.97s-10.47,105.33-31.12,154.15C758.94,615.28,730.38,657.63,694,694z"/>
	<path id="circle_x5F_stroke_x5F_little_1_" class="st4" d="M414,153c-144.15,0-261,116.85-261,261s116.85,261,261,261
		s261-116.85,261-261S558.15,153,414,153z M592.19,592.19c-23.15,23.15-50.1,41.32-80.1,54.01C481.03,659.34,448.02,666,414,666
		s-67.02-6.66-98.09-19.8c-30.01-12.69-56.96-30.86-80.1-54.01c-23.15-23.15-41.32-50.1-54.01-80.1
		C168.66,481.03,162,448.02,162,414s6.66-67.03,19.8-98.09c12.69-30.01,30.86-56.96,54.01-80.1c23.15-23.15,50.1-41.32,80.1-54.01
		C346.98,168.66,379.98,162,414,162s67.03,6.66,98.09,19.8c30.01,12.69,56.96,30.86,80.1,54.01c23.15,23.15,41.32,50.1,54.01,80.1
		C659.34,346.97,666,379.98,666,414s-6.66,67.03-19.8,98.09C633.51,542.09,615.34,569.04,592.19,592.19z"/>
	<path id="Football_center" class="st5" d="M171.09,198.76l19.78,17.7l-6.95,7.76l-44.82-40.11l17.98-20.09l6.7,5.99l-11.04,12.33
		l11.64,10.42l9.08-10.14l6.7,5.99L171.09,198.76z M222.19,170.6c2.76,3.17,3.66,6.52,2.7,10.07s-2.98,6.66-6.06,9.35
		c-3.12,2.72-6.51,4.32-10.15,4.78c-3.64,0.47-6.85-0.89-9.61-4.05l-24.4-27.99c-2.8-3.21-3.72-6.58-2.76-10.13s3-6.68,6.12-9.4
		c3.08-2.69,6.44-4.26,10.09-4.73c3.64-0.46,6.86,0.91,9.66,4.11L222.19,170.6z M214.23,177.32l-24.12-27.67
		c-0.88-1.01-1.91-1.44-3.07-1.28s-2.23,0.66-3.2,1.51c-1.01,0.88-1.69,1.9-2.02,3.05c-0.34,1.15-0.06,2.23,0.82,3.24l24.12,27.67
		c0.88,1.01,1.92,1.43,3.1,1.25s2.28-0.71,3.29-1.59c0.97-0.85,1.61-1.83,1.93-2.96C215.4,179.4,215.11,178.33,214.23,177.32z
		 M255.72,147.53c2.32,3.5,2.78,6.94,1.37,10.33s-3.82,6.22-7.23,8.48c-3.45,2.29-7.02,3.43-10.69,3.42s-6.67-1.77-8.99-5.27
		l-20.54-30.93c-2.35-3.54-2.83-7.01-1.41-10.4c1.41-3.39,3.84-6.23,7.3-8.52c3.41-2.26,6.94-3.38,10.62-3.37
		c3.67,0.02,6.69,1.8,9.04,5.34L255.72,147.53z M246.95,153.15l-20.3-30.58c-0.74-1.12-1.7-1.68-2.87-1.67s-2.3,0.36-3.37,1.08
		c-1.12,0.74-1.92,1.66-2.4,2.76c-0.48,1.09-0.35,2.2,0.39,3.32l20.3,30.58c0.74,1.12,1.71,1.67,2.91,1.65s2.35-0.4,3.47-1.15
		c1.07-0.71,1.84-1.61,2.3-2.69C247.84,155.37,247.7,154.27,246.95,153.15z M270.45,95.29l-4.04-8.03l-26.71,13.45l4.04,8.03
		l8.78-4.42l23,45.69l9.23-4.65l-23-45.69L270.45,95.29z M325.12,114.75c1.3,3.64,1.24,7.1-0.2,10.38
		c-1.44,3.28-4.22,5.66-8.33,7.14l-17.08,6.13l-20.3-56.61l15.89-5.7c3.69-1.32,7.09-1.38,10.2-0.18s5.26,3.47,6.45,6.79l2.5,6.96
		c1.19,3.32,0.6,6.9-1.78,10.72c5.2,0.57,8.59,3.05,10.16,7.42L325.12,114.75z M302.78,99.74c1.27-0.45,2.07-1.2,2.41-2.25
		c0.34-1.04,0.3-2.15-0.11-3.31l-2.27-6.33c-1.08-3-2.88-4.05-5.41-3.15l-5.38,1.93l5.39,15.02L302.78,99.74z M315.2,117.95
		l-2.5-6.96c-0.53-1.48-1.39-2.54-2.57-3.18c-1.18-0.65-2.59-0.68-4.23-0.09l-5.61,2.01l6.07,16.92l5.61-2.01
		c1.63-0.59,2.71-1.49,3.22-2.72C315.71,120.7,315.71,119.37,315.2,117.95z M369.62,117.16l0.31,1.48l-9.78,2.08
		c-2.43-5.49-4.06-9.24-4.88-11.24l-12.49,2.66l0.2,12.24l-9.78,2.08l-0.32-1.48l1.26-60.22l9.78-2.08L369.62,117.16z M351.7,101.14
		l-9.33-21.63c0.02,6.29,0.12,14.15,0.29,23.56L351.7,101.14z M386.01,108.27l-4.48-50.96l-10.38,0.91l5.26,59.91l26.86-2.36
		l-0.79-8.95L386.01,108.27z M421.73,55.94l-10.41-0.24l-1.41,60.13l26.96,0.63l0.21-8.99l-16.54-0.39L421.73,55.94z M486.97,85.09
		l10.2,2.09l1.97-9.63c0.85-4.17-0.01-7.56-2.59-10.18c-2.58-2.61-5.87-4.33-9.88-5.15c-4.06-0.83-7.79-0.55-11.19,0.84
		s-5.53,4.17-6.38,8.34l-7.45,36.37c-0.84,4.11,0.03,7.48,2.61,10.09c2.58,2.62,5.9,4.34,9.96,5.17c4,0.82,7.71,0.54,11.11-0.86
		c3.4-1.39,5.52-4.14,6.36-8.26l1.95-9.55l-10.2-2.09l-1.9,9.3c-0.26,1.26-0.93,2.11-2.02,2.54c-1.09,0.44-2.26,0.52-3.53,0.26
		c-1.32-0.27-2.4-0.82-3.26-1.65c-0.86-0.83-1.16-1.88-0.9-3.14l7.33-35.8c0.27-1.32,0.95-2.18,2.03-2.59s2.31-0.47,3.68-0.19
		c1.26,0.26,2.31,0.8,3.14,1.63s1.12,1.87,0.86,3.13L486.97,85.09z M529.45,110.37l2.89-8.51l-12.89-4.37l5.02-14.79l15.67,5.32
		l2.89-8.51l-25.53-8.67l-19.33,56.95l25.53,8.67l2.89-8.51l-15.67-5.32l5.64-16.63L529.45,110.37z M578.77,95.88l-4.34,8.73
		c-1.45,2.91-3.45,7.07-6.02,12.49c-2.57,5.42-4.26,8.95-5.08,10.61l3.1-37.95l-8.12-4.04l-26.77,53.86l9.25,4.6l4.3-8.65
		c1.45-2.91,3.45-7.06,6-12.45s4.25-8.94,5.1-10.64l-3.06,37.87l8.05,4l26.77-53.86L578.77,95.88z M619.98,131.66l4.99-7.48
		l-24.87-16.6l-4.99,7.48l8.17,5.46l-28.4,42.55l8.59,5.74l28.4-42.55L619.98,131.66z M621.95,164.81l10.39,8.78l5.8-6.86
		l-10.39-8.78l10.09-11.93l12.64,10.68l5.8-6.86l-20.59-17.41l-38.83,45.93l20.59,17.41l5.8-6.86l-12.64-10.68L621.95,164.81z
		 M683.71,183.57c-0.02,3.55-1.72,6.87-5.11,9.97l-5.45,4.99c-4.25,3.9-8.94,5.04-14.06,3.42c-1.42,2.51-3.52,6.28-6.29,11.29
		c-2.78,5.01-4.86,8.75-6.23,11.23l-1.11,1.02l-7.2-7.87l13.06-21.18l-3.06-3.35l-17.66,16.17l-6.92-7.56l44.36-40.61l11.12,12.14
		C682.21,176.58,683.73,180.03,683.71,183.57z M672.4,179.18l-4.08-4.46l-13.44,12.31l4.08,4.46c0.94,1.03,2.11,1.45,3.48,1.25
		c1.38-0.2,2.58-0.77,3.61-1.71l5.64-5.16c0.95-0.87,1.54-1.94,1.78-3.22C673.7,181.37,673.35,180.21,672.4,179.18z"/>
	<path id="_x32_022" class="st5" d="M365.76,711.2c2.41,2.55,3.21,5.92,2.39,10.1l-1,5.11c-0.46,2.36-1.07,4.44-1.82,6.24
		c-0.75,1.79-1.48,3.19-2.19,4.19s-1.72,1.95-3.03,2.83c-1.31,0.89-2.38,1.52-3.2,1.9s-2.12,0.91-3.91,1.59
		c-4.09,1.37-6.64,2.54-7.66,3.51c-1.02,0.97-1.88,3.27-2.59,6.9l-0.63,3.21l18.71,3.65l-1.69,8.66l-28.85-5.63l2.32-11.87
		c0.42-2.14,0.9-4,1.43-5.58c0.54-1.58,1.25-2.97,2.14-4.16c0.89-1.2,1.71-2.16,2.45-2.9c0.74-0.74,1.83-1.47,3.25-2.19
		c1.42-0.72,2.63-1.25,3.61-1.61c0.98-0.35,2.48-0.87,4.5-1.56c2.3-0.69,3.9-1.62,4.78-2.79s1.63-3.29,2.23-6.37l0.95-4.86
		c0.25-1.26,0.03-2.28-0.65-3.04c-0.68-0.76-1.51-1.24-2.5-1.43c-1.1-0.21-2.11-0.1-3.02,0.35c-0.92,0.45-1.5,1.31-1.74,2.57
		l-1.24,6.35l-10.14-1.98l1.29-6.6c0.82-4.18,2.83-6.99,6.06-8.45c3.22-1.45,6.73-1.81,10.52-1.07
		C360.28,707.01,363.35,708.65,365.76,711.2z M407.78,723.9l-2.5,38.39c-0.26,4.02-1.88,6.89-4.85,8.61
		c-2.97,1.71-6.36,2.45-10.16,2.2c-3.86-0.25-7.16-1.42-9.92-3.51c-2.75-2.09-4-5.14-3.74-9.17l2.5-38.39
		c0.26-4.02,1.89-6.91,4.9-8.65c3-1.74,6.43-2.49,10.29-2.23c3.8,0.25,7.06,1.41,9.79,3.5C406.81,716.74,408.04,719.82,407.78,723.9
		z M397.45,723.57c0.07-1.12-0.27-1.95-1.02-2.51c-0.75-0.55-1.66-0.87-2.72-0.93c-2.74-0.18-4.18,0.79-4.31,2.92l-2.46,37.8
		c-0.07,1.06,0.28,1.88,1.06,2.47c0.77,0.58,1.72,0.91,2.84,0.98c1.01,0.07,1.93-0.14,2.78-0.62c0.84-0.48,1.3-1.25,1.37-2.31
		L397.45,723.57z M431.17,763.73l-0.2-3.27c-0.22-3.69,0.03-6.13,0.77-7.33c0.74-1.19,2.92-2.97,6.54-5.32
		c1.56-1.1,2.69-1.94,3.38-2.52c0.69-0.57,1.57-1.45,2.62-2.64s1.79-2.35,2.23-3.5c0.43-1.15,0.79-2.68,1.07-4.61
		c0.27-1.92,0.34-4.09,0.19-6.49l-0.32-5.2c-0.26-4.25-1.88-7.3-4.85-9.17s-6.36-2.68-10.16-2.45c-3.86,0.23-7.16,1.46-9.92,3.68
		s-4,5.45-3.74,9.7l0.41,6.71l10.31-0.63l-0.39-6.46c-0.08-1.29,0.27-2.26,1.04-2.92c0.77-0.66,1.72-1.03,2.84-1.1
		c1.01-0.06,1.93,0.19,2.78,0.76s1.31,1.49,1.39,2.78l0.3,4.95c0.19,3.13,0,5.37-0.56,6.72s-1.87,2.65-3.93,3.9
		c-1.78,1.17-3.1,2.05-3.96,2.64s-1.89,1.41-3.09,2.46c-1.2,1.05-2.06,2.03-2.6,2.94s-1.08,2.04-1.64,3.42s-0.9,2.9-1.03,4.56
		c-0.12,1.66-0.12,3.58,0.01,5.76l0.74,12.07l29.35-1.79l-0.54-8.8L431.17,763.73z M494.41,755.15l-18.73,3.58l-0.61-3.22
		c-0.69-3.63-0.75-6.08-0.17-7.37c0.58-1.28,2.52-3.32,5.8-6.11c1.41-1.29,2.42-2.27,3.03-2.93s1.37-1.64,2.26-2.95
		s1.48-2.56,1.76-3.76c0.29-1.19,0.44-2.76,0.47-4.71c0.03-1.94-0.18-4.1-0.63-6.46l-0.98-5.12c-0.8-4.18-2.79-7.01-5.98-8.48
		s-6.65-1.85-10.39-1.14c-3.79,0.72-6.92,2.36-9.37,4.91s-3.28,5.91-2.48,10.09l1.26,6.6l10.15-1.94l-1.21-6.35
		c-0.24-1.26-0.02-2.28,0.66-3.03c0.68-0.76,1.57-1.24,2.67-1.45c0.99-0.19,1.94-0.06,2.86,0.4c0.91,0.45,1.49,1.31,1.73,2.58
		l0.93,4.87c0.59,3.08,0.69,5.33,0.3,6.74s-1.52,2.87-3.4,4.37c-1.62,1.39-2.81,2.43-3.59,3.12s-1.7,1.64-2.75,2.83
		c-1.05,1.2-1.79,2.28-2.2,3.24c-0.42,0.96-0.81,2.17-1.19,3.61s-0.53,3-0.44,4.66c0.09,1.67,0.34,3.57,0.75,5.71l2.27,11.88
		l28.88-5.51L494.41,755.15z"/>
	<path id="field_x27_s_centre" class="st5" d="M648,414c0,123.18-95.18,224.13-216,233.32v50.18l-36-18v-32.18v-36.14V464.92
		c5.63,1.99,11.69,3.08,18,3.08s12.37-1.09,18-3.08v146.26c100.91-9.1,180-93.89,180-197.18c0-97.06-69.84-177.79-162-194.73v-36.52
		C562.14,200.07,648,297.01,648,414z M216,414c0-103.28,79.09-188.08,180-197.18v146.26c5.63-1.99,11.69-3.08,18-3.08
		s12.37,1.09,18,3.08V216.82v-36.14V148.5l-36-18v50.18C275.18,189.87,180,290.82,180,414c0,116.99,85.86,213.93,198,231.24v-36.52
		C285.84,591.79,216,511.06,216,414z M450,414c0-19.88-16.12-36-36-36s-36,16.12-36,36s16.12,36,36,36S450,433.88,450,414z"/>
	<path id="FC_2_" class="st4" d="M547.51,468h38.24C566.32,529.85,514.41,577.32,450,590.4V564v-10.54v-99.22
		c11.04-9.89,18-24.25,18-40.24s-6.96-30.35-18-40.24v-99.22V264v-26.4c64.41,13.07,116.32,60.54,135.75,122.4h-38.24
		c-12.09-29.86-33.89-54.75-61.51-70.73v249.46C513.62,522.75,535.42,497.86,547.51,468z M234,414c0,87.08,61.84,159.72,144,176.4
		v-36.93c-56.47-14.53-99.52-62.45-106.88-121.46H342v-36h-70.88c5.69-45.66,32.76-84.68,70.88-106.73V342l36,18v-85.46V252v-14.4
		C295.84,254.28,234,326.92,234,414z"/>
</g>
<g id="Направляющие" class="st0">
	<rect x="405" y="18" class="st6" width="27" height="144"/>
</g>
</svg>
